<svg width="55" height="35" viewBox="0 0 59 37" fill="none" xmlns="http://www.w3.org/2000/svg">
<path d="M2.62891 14.7148H6.4668L7.05273 14.0117V3.20117L6.4668 2.32227H2.62891V14.7148ZM0.402344 17V0.212891H6.99414L9.68945 4.10938V13.3965L6.70117 17H0.402344ZM16.7207 2.29297V7.39062H21.4375V2.29297H16.7207ZM23.7812 17H21.4375V9.5H16.7207V17H14.4941V0.212891H23.7812V17ZM38.7812 17H35.8516L31.75 9.5H30.8125L30.8418 17H28.5859V0.212891H37.2871V9.5H34.709L38.7812 17ZM34.9434 7.39062V2.29297H30.8125V7.39062H34.9434ZM52.873 17L47.0137 8.15234L52.5801 0.212891H49.3867L44.9043 7.39062V0.212891H42.6777V17H44.9043V9.5H45.3438L49.416 17H52.873ZM9.68945 37H7.28711V22.293H2.62891V37H0.402344V20.2129H16.6035V37H14.2598V22.293H9.68945V37ZM23.6055 34.7148H28.3223V22.3223H23.6055V34.7148ZM21.3789 37V20.2129H30.666V37H21.3789ZM37.6973 34.7148H41.5352L42.1211 34.0117V23.2012L41.5352 22.3223H37.6973V34.7148ZM35.4707 37V20.2129H42.0625L44.7578 24.1094V33.3965L41.7695 37H35.4707ZM58.8496 34.7148V37H49.5625V20.2129L58.8496 20.1836V22.293H51.7891V25.9258H58.8496V28.0352H51.7891V34.7148H58.8496Z" fill="#61DAFB"/>
</svg>
