<svg width="48" height="17" viewBox="0 0 48 17" fill="none" xmlns="http://www.w3.org/2000/svg">
<path d="M7.3457 5.89648V0.212891H9.68945V17H7.3457V8.00586H2.62891V17H0.402344V0.212891H2.62891V5.89648H7.3457ZM15.7246 2.35156H13.5859V0.212891H19.9434V2.35156H17.9512V14.832H20.0898V17H13.7617V14.832H15.7246V2.35156ZM26.2129 14.7148H30.0508L30.6367 14.0117V3.20117L30.0508 2.32227H26.2129V14.7148ZM23.9863 17V0.212891H30.5781L33.2734 4.10938V13.3965L30.2852 17H23.9863ZM47.3652 14.7148V17H38.0781V0.212891L47.3652 0.183594V2.29297H40.3047V5.92578H47.3652V8.03516H40.3047V14.7148H47.3652Z" fill="#61DAFB"/>
</svg>
