<svg width="55" height="35" viewBox="0 0 62 37" fill="none" xmlns="http://www.w3.org/2000/svg">
<path d="M2.62891 14.7148H9.68945V17H0.402344V0.212891L2.62891 0.183594V14.7148ZM15.7246 2.35156H13.5859V0.212891H19.9434V2.35156H17.9512V14.832H20.0898V17H13.7617V14.832H15.7246V2.35156ZM28.1758 5.89648H33.2734V17H23.9863V0.212891H33.2734V2.41016H26.3301V14.8906H31.0469V7.97656H28.1758V5.89648ZM45.0215 5.89648H40.3047V0.212891H38.0781V17H40.3047V8.00586H45.0215V17H47.3652V0.212891H45.0215V5.89648ZM58 17H55.7734V2.35156H52.1406V0.212891H61.457V2.35156H58V17ZM9.68945 37H7.28711V22.293H2.62891V37H0.402344V20.2129H16.6035V37H14.2598V22.293H9.68945V37ZM23.6055 34.7148H28.3223V22.3223H23.6055V34.7148ZM21.3789 37V20.2129H30.666V37H21.3789ZM37.6973 34.7148H41.5352L42.1211 34.0117V23.2012L41.5352 22.3223H37.6973V34.7148ZM35.4707 37V20.2129H42.0625L44.7578 24.1094V33.3965L41.7695 37H35.4707ZM58.8496 34.7148V37H49.5625V20.2129L58.8496 20.1836V22.293H51.7891V25.9258H58.8496V28.0352H51.7891V34.7148H58.8496Z" fill="black"/>
</svg>
